<svg width="280" height="160" viewBox="0 0 280 160" fill="none" xmlns="http://www.w3.org/2000/svg">
<rect width="280" height="160" fill="#1E1E1E"/>
<rect width="280" height="160" fill="#FF6B35"/>
<path d="M61.728 54.272H81.44V65.664H61.728V54.272ZM62.752 80H47.648V35.2H84.064V46.592H62.752V80ZM88.8355 80V35.2H110.404C114.585 35.2 118.19 35.8827 121.22 37.248C124.292 38.6133 126.66 40.576 128.324 43.136C129.988 45.6533 130.82 48.64 130.82 52.096C130.82 55.552 129.988 58.5387 128.324 61.056C126.66 63.5307 124.292 65.4293 121.22 66.752C118.19 68.0747 114.585 68.736 110.404 68.736H97.2195L103.94 62.528V80H88.8355ZM115.652 80L104.644 63.68H120.644L131.78 80H115.652ZM103.94 64.192L97.2195 57.344H109.444C111.534 57.344 113.07 56.8747 114.052 55.936C115.076 54.9973 115.588 53.7173 115.588 52.096C115.588 50.4747 115.076 49.1947 114.052 48.256C113.07 47.3173 111.534 46.848 109.444 46.848H97.2195L103.94 40V64.192ZM131.659 80L151.243 35.2H166.091L185.675 80H170.059L155.595 42.368H161.483L147.019 80H131.659ZM143.307 72.192L147.147 61.312H167.755L171.595 72.192H143.307ZM188.086 80V35.2H200.502L223.286 62.464H217.526V35.2H232.246V80H219.83L197.046 52.736H202.806V80H188.086Z" fill="white"/>
<path d="M46.556 103.464H50.744V104.784H46.556V103.464ZM46.688 108H45.128V99.6H51.26V100.908H46.688V108ZM54.8173 108L58.5973 99.6H60.1333L63.9253 108H62.2933L59.0413 100.428H59.6653L56.4253 108H54.8173ZM56.5573 106.056L56.9773 104.832H61.5133L61.9333 106.056H56.5573ZM68.5936 108V99.6H70.1536V108H68.5936ZM77.7297 108V100.92H74.9457V99.6H82.0737V100.92H79.2897V108H77.7297ZM89.3664 108.12C88.7104 108.12 88.0824 108.028 87.4824 107.844C86.8824 107.652 86.4064 107.408 86.0544 107.112L86.5944 105.9C86.9304 106.164 87.3464 106.384 87.8424 106.56C88.3384 106.736 88.8464 106.824 89.3664 106.824C89.8064 106.824 90.1624 106.776 90.4344 106.68C90.7064 106.584 90.9064 106.456 91.0344 106.296C91.1624 106.128 91.2264 105.94 91.2264 105.732C91.2264 105.476 91.1344 105.272 90.9504 105.12C90.7664 104.96 90.5264 104.836 90.2304 104.748C89.9424 104.652 89.6184 104.564 89.2584 104.484C88.9064 104.404 88.5504 104.312 88.1904 104.208C87.8384 104.096 87.5144 103.956 87.2184 103.788C86.9304 103.612 86.6944 103.38 86.5104 103.092C86.3264 102.804 86.2344 102.436 86.2344 101.988C86.2344 101.532 86.3544 101.116 86.5944 100.74C86.8424 100.356 87.2144 100.052 87.7104 99.828C88.2144 99.596 88.8504 99.48 89.6184 99.48C90.1224 99.48 90.6224 99.544 91.1184 99.672C91.6144 99.8 92.0464 99.984 92.4144 100.224L91.9224 101.436C91.5464 101.212 91.1584 101.048 90.7584 100.944C90.3584 100.832 89.9744 100.776 89.6064 100.776C89.1744 100.776 88.8224 100.828 88.5504 100.932C88.2864 101.036 88.0904 101.172 87.9624 101.34C87.8424 101.508 87.7824 101.7 87.7824 101.916C87.7824 102.172 87.8704 102.38 88.0464 102.54C88.2304 102.692 88.4664 102.812 88.7544 102.9C89.0504 102.988 89.3784 103.076 89.7384 103.164C90.0984 103.244 90.4544 103.336 90.8064 103.44C91.1664 103.544 91.4904 103.68 91.7784 103.848C92.0744 104.016 92.3104 104.244 92.4864 104.532C92.6704 104.82 92.7624 105.184 92.7624 105.624C92.7624 106.072 92.6384 106.488 92.3904 106.872C92.1504 107.248 91.7784 107.552 91.2744 107.784C90.7704 108.008 90.1344 108.12 89.3664 108.12ZM97.6036 109.812L98.2996 107.16L98.5036 108.048C98.2236 108.048 97.9876 107.964 97.7956 107.796C97.6116 107.62 97.5196 107.384 97.5196 107.088C97.5196 106.784 97.6116 106.544 97.7956 106.368C97.9876 106.184 98.2196 106.092 98.4916 106.092C98.7716 106.092 99.0036 106.184 99.1876 106.368C99.3716 106.552 99.4636 106.792 99.4636 107.088C99.4636 107.168 99.4556 107.256 99.4396 107.352C99.4236 107.44 99.3956 107.544 99.3556 107.664C99.3236 107.784 99.2676 107.936 99.1876 108.12L98.5756 109.812H97.6036ZM111.59 108V99.6H115.046C115.79 99.6 116.426 99.72 116.954 99.96C117.49 100.2 117.902 100.544 118.19 100.992C118.478 101.44 118.622 101.972 118.622 102.588C118.622 103.204 118.478 103.736 118.19 104.184C117.902 104.624 117.49 104.964 116.954 105.204C116.426 105.436 115.79 105.552 115.046 105.552H112.454L113.15 104.844V108H111.59ZM117.086 108L114.962 104.952H116.63L118.766 108H117.086ZM113.15 105.012L112.454 104.268H114.974C115.662 104.268 116.178 104.12 116.522 103.824C116.874 103.528 117.05 103.116 117.05 102.588C117.05 102.052 116.874 101.64 116.522 101.352C116.178 101.064 115.662 100.92 114.974 100.92H112.454L113.15 100.152V105.012ZM125.407 103.092H129.583V104.376H125.407V103.092ZM125.527 106.692H130.267V108H123.967V99.6H130.099V100.908H125.527V106.692ZM135.606 108V99.6H139.062C139.806 99.6 140.442 99.72 140.97 99.96C141.506 100.2 141.918 100.544 142.206 100.992C142.494 101.44 142.638 101.972 142.638 102.588C142.638 103.204 142.494 103.736 142.206 104.184C141.918 104.632 141.506 104.976 140.97 105.216C140.442 105.456 139.806 105.576 139.062 105.576H136.47L137.166 104.844V108H135.606ZM137.166 105.012L136.47 104.256H138.99C139.678 104.256 140.194 104.112 140.538 103.824C140.89 103.528 141.066 103.116 141.066 102.588C141.066 102.052 140.89 101.64 140.538 101.352C140.194 101.064 139.678 100.92 138.99 100.92H136.47L137.166 100.152V105.012ZM151.849 108.12C151.193 108.12 150.589 108.012 150.037 107.796C149.485 107.58 149.005 107.28 148.597 106.896C148.189 106.504 147.873 106.048 147.649 105.528C147.425 105 147.313 104.424 147.313 103.8C147.313 103.176 147.425 102.604 147.649 102.084C147.873 101.556 148.189 101.1 148.597 100.716C149.005 100.324 149.485 100.02 150.037 99.804C150.589 99.588 151.189 99.48 151.837 99.48C152.493 99.48 153.093 99.588 153.637 99.804C154.189 100.02 154.669 100.324 155.077 100.716C155.485 101.1 155.801 101.556 156.025 102.084C156.249 102.604 156.361 103.176 156.361 103.8C156.361 104.424 156.249 105 156.025 105.528C155.801 106.056 155.485 106.512 155.077 106.896C154.669 107.28 154.189 107.58 153.637 107.796C153.093 108.012 152.497 108.12 151.849 108.12ZM151.837 106.752C152.261 106.752 152.653 106.68 153.013 106.536C153.373 106.392 153.685 106.188 153.949 105.924C154.213 105.652 154.417 105.34 154.561 104.988C154.713 104.628 154.789 104.232 154.789 103.8C154.789 103.368 154.713 102.976 154.561 102.624C154.417 102.264 154.213 101.952 153.949 101.688C153.685 101.416 153.373 101.208 153.013 101.064C152.653 100.92 152.261 100.848 151.837 100.848C151.413 100.848 151.021 100.92 150.661 101.064C150.309 101.208 149.997 101.416 149.725 101.688C149.461 101.952 149.253 102.264 149.101 102.624C148.957 102.976 148.885 103.368 148.885 103.8C148.885 104.224 148.957 104.616 149.101 104.976C149.253 105.336 149.461 105.652 149.725 105.924C149.989 106.188 150.301 106.392 150.661 106.536C151.021 106.68 151.413 106.752 151.837 106.752ZM161.615 108V99.6H165.071C165.815 99.6 166.451 99.72 166.979 99.96C167.515 100.2 167.927 100.544 168.215 100.992C168.503 101.44 168.647 101.972 168.647 102.588C168.647 103.204 168.503 103.736 168.215 104.184C167.927 104.624 167.515 104.964 166.979 105.204C166.451 105.436 165.815 105.552 165.071 105.552H162.479L163.175 104.844V108H161.615ZM167.111 108L164.987 104.952H166.655L168.791 108H167.111ZM163.175 105.012L162.479 104.268H164.999C165.687 104.268 166.203 104.12 166.547 103.824C166.899 103.528 167.075 103.116 167.075 102.588C167.075 102.052 166.899 101.64 166.547 101.352C166.203 101.064 165.687 100.92 164.999 100.92H162.479L163.175 100.152V105.012ZM175.579 108V100.92H172.795V99.6H179.923V100.92H177.139V108H175.579ZM183.084 108L186.864 99.6H188.4L192.192 108H190.56L187.308 100.428H187.932L184.692 108H183.084ZM184.824 106.056L185.244 104.832H189.78L190.2 106.056H184.824ZM200.667 108.12C200.011 108.12 199.407 108.016 198.855 107.808C198.311 107.592 197.835 107.292 197.427 106.908C197.019 106.516 196.703 106.056 196.479 105.528C196.255 105 196.143 104.424 196.143 103.8C196.143 103.176 196.255 102.6 196.479 102.072C196.703 101.544 197.019 101.088 197.427 100.704C197.843 100.312 198.327 100.012 198.879 99.804C199.431 99.588 200.035 99.48 200.691 99.48C201.403 99.48 202.043 99.596 202.611 99.828C203.187 100.06 203.671 100.4 204.063 100.848L203.079 101.808C202.751 101.48 202.395 101.24 202.011 101.088C201.635 100.928 201.219 100.848 200.763 100.848C200.323 100.848 199.915 100.92 199.539 101.064C199.163 101.208 198.839 101.412 198.567 101.676C198.295 101.94 198.083 102.252 197.931 102.612C197.787 102.972 197.715 103.368 197.715 103.8C197.715 104.224 197.787 104.616 197.931 104.976C198.083 105.336 198.295 105.652 198.567 105.924C198.839 106.188 199.159 106.392 199.527 106.536C199.895 106.68 200.303 106.752 200.751 106.752C201.167 106.752 201.567 106.688 201.951 106.56C202.343 106.424 202.715 106.2 203.067 105.888L203.955 107.052C203.515 107.404 203.003 107.672 202.419 107.856C201.843 108.032 201.259 108.12 200.667 108.12ZM202.479 106.848V103.704H203.955V107.052L202.479 106.848ZM211.052 103.092H215.228V104.376H211.052V103.092ZM211.172 106.692H215.912V108H209.612V99.6H215.744V100.908H211.172V106.692ZM223.855 108.12C223.199 108.12 222.571 108.028 221.971 107.844C221.371 107.652 220.895 107.408 220.543 107.112L221.083 105.9C221.419 106.164 221.835 106.384 222.331 106.56C222.827 106.736 223.335 106.824 223.855 106.824C224.295 106.824 224.651 106.776 224.923 106.68C225.195 106.584 225.395 106.456 225.523 106.296C225.651 106.128 225.715 105.94 225.715 105.732C225.715 105.476 225.623 105.272 225.439 105.12C225.255 104.96 225.015 104.836 224.719 104.748C224.431 104.652 224.107 104.564 223.747 104.484C223.395 104.404 223.039 104.312 222.679 104.208C222.327 104.096 222.003 103.956 221.707 103.788C221.419 103.612 221.183 103.38 220.999 103.092C220.815 102.804 220.723 102.436 220.723 101.988C220.723 101.532 220.843 101.116 221.083 100.74C221.331 100.356 221.703 100.052 222.199 99.828C222.703 99.596 223.339 99.48 224.107 99.48C224.611 99.48 225.111 99.544 225.607 99.672C226.103 99.8 226.535 99.984 226.903 100.224L226.411 101.436C226.035 101.212 225.647 101.048 225.247 100.944C224.847 100.832 224.463 100.776 224.095 100.776C223.663 100.776 223.311 100.828 223.039 100.932C222.775 101.036 222.579 101.172 222.451 101.34C222.331 101.508 222.271 101.7 222.271 101.916C222.271 102.172 222.359 102.38 222.535 102.54C222.719 102.692 222.955 102.812 223.243 102.9C223.539 102.988 223.867 103.076 224.227 103.164C224.587 103.244 224.943 103.336 225.295 103.44C225.655 103.544 225.979 103.68 226.267 103.848C226.563 104.016 226.799 104.244 226.975 104.532C227.159 104.82 227.251 105.184 227.251 105.624C227.251 106.072 227.127 106.488 226.879 106.872C226.639 107.248 226.267 107.552 225.763 107.784C225.259 108.008 224.623 108.12 223.855 108.12ZM232.093 109.812L232.789 107.16L232.993 108.048C232.713 108.048 232.477 107.964 232.285 107.796C232.101 107.62 232.009 107.384 232.009 107.088C232.009 106.784 232.101 106.544 232.285 106.368C232.477 106.184 232.709 106.092 232.981 106.092C233.261 106.092 233.493 106.184 233.677 106.368C233.861 106.552 233.953 106.792 233.953 107.088C233.953 107.168 233.945 107.256 233.929 107.352C233.913 107.44 233.885 107.544 233.845 107.664C233.813 107.784 233.757 107.936 233.677 108.12L233.065 109.812H232.093Z" fill="black"/>
<path d="M43.94 123L47.72 114.6H49.256L53.048 123H51.416L48.164 115.428H48.788L45.548 123H43.94ZM45.68 121.056L46.1 119.832H50.636L51.056 121.056H45.68ZM60.6471 123.12C60.0071 123.12 59.4111 123.016 58.8591 122.808C58.3151 122.592 57.8391 122.292 57.4311 121.908C57.0311 121.516 56.7191 121.056 56.4951 120.528C56.2711 120 56.1591 119.424 56.1591 118.8C56.1591 118.176 56.2711 117.6 56.4951 117.072C56.7191 116.544 57.0351 116.088 57.4431 115.704C57.8511 115.312 58.3271 115.012 58.8711 114.804C59.4151 114.588 60.0111 114.48 60.6591 114.48C61.3471 114.48 61.9751 114.6 62.5431 114.84C63.1111 115.072 63.5911 115.42 63.9831 115.884L62.9751 116.832C62.6711 116.504 62.3311 116.26 61.9551 116.1C61.5791 115.932 61.1711 115.848 60.7311 115.848C60.2911 115.848 59.8871 115.92 59.5191 116.064C59.1591 116.208 58.8431 116.412 58.5711 116.676C58.3071 116.94 58.0991 117.252 57.9471 117.612C57.8031 117.972 57.7311 118.368 57.7311 118.8C57.7311 119.232 57.8031 119.628 57.9471 119.988C58.0991 120.348 58.3071 120.66 58.5711 120.924C58.8431 121.188 59.1591 121.392 59.5191 121.536C59.8871 121.68 60.2911 121.752 60.7311 121.752C61.1711 121.752 61.5791 121.672 61.9551 121.512C62.3311 121.344 62.6711 121.092 62.9751 120.756L63.9831 121.716C63.5911 122.172 63.1111 122.52 62.5431 122.76C61.9751 123 61.3431 123.12 60.6471 123.12ZM69.8481 123V115.92H67.0641V114.6H74.1921V115.92H71.4081V123H69.8481ZM81.5825 123.12C80.4305 123.12 79.5265 122.796 78.8705 122.148C78.2225 121.5 77.8985 120.564 77.8985 119.34V114.6H79.4585V119.28C79.4585 120.144 79.6425 120.772 80.0105 121.164C80.3865 121.556 80.9145 121.752 81.5945 121.752C82.2745 121.752 82.7985 121.556 83.1665 121.164C83.5345 120.772 83.7185 120.144 83.7185 119.28V114.6H85.2545V119.34C85.2545 120.564 84.9265 121.5 84.2705 122.148C83.6225 122.796 82.7265 123.12 81.5825 123.12ZM88.8355 123L92.6155 114.6H94.1515L97.9435 123H96.3115L93.0595 115.428H93.6835L90.4435 123H88.8355ZM90.5755 121.056L90.9955 119.832H95.5315L95.9515 121.056H90.5755ZM101.772 123V114.6H103.332V121.68H107.724V123H101.772ZM111.715 123V114.6H113.275V123H111.715ZM120.011 123V115.92H117.227V114.6H124.355V115.92H121.571V123H120.011ZM129.726 118.092H133.902V119.376H129.726V118.092ZM129.846 121.692H134.586V123H128.286V114.6H134.418V115.908H129.846V121.692ZM130.362 113.916L131.982 112.272H133.746L131.658 113.916H130.362ZM141.689 123.12C141.033 123.12 140.405 123.028 139.805 122.844C139.205 122.652 138.729 122.408 138.377 122.112L138.917 120.9C139.253 121.164 139.669 121.384 140.165 121.56C140.661 121.736 141.169 121.824 141.689 121.824C142.129 121.824 142.485 121.776 142.757 121.68C143.029 121.584 143.229 121.456 143.357 121.296C143.485 121.128 143.549 120.94 143.549 120.732C143.549 120.476 143.457 120.272 143.273 120.12C143.089 119.96 142.849 119.836 142.553 119.748C142.265 119.652 141.941 119.564 141.581 119.484C141.229 119.404 140.873 119.312 140.513 119.208C140.161 119.096 139.837 118.956 139.541 118.788C139.253 118.612 139.017 118.38 138.833 118.092C138.649 117.804 138.557 117.436 138.557 116.988C138.557 116.532 138.677 116.116 138.917 115.74C139.165 115.356 139.537 115.052 140.033 114.828C140.537 114.596 141.173 114.48 141.941 114.48C142.445 114.48 142.945 114.544 143.441 114.672C143.937 114.8 144.369 114.984 144.737 115.224L144.245 116.436C143.869 116.212 143.481 116.048 143.081 115.944C142.681 115.832 142.297 115.776 141.929 115.776C141.497 115.776 141.145 115.828 140.873 115.932C140.609 116.036 140.413 116.172 140.285 116.34C140.165 116.508 140.105 116.7 140.105 116.916C140.105 117.172 140.193 117.38 140.369 117.54C140.553 117.692 140.789 117.812 141.077 117.9C141.373 117.988 141.701 118.076 142.061 118.164C142.421 118.244 142.777 118.336 143.129 118.44C143.489 118.544 143.813 118.68 144.101 118.848C144.397 119.016 144.633 119.244 144.809 119.532C144.993 119.82 145.085 120.184 145.085 120.624C145.085 121.072 144.961 121.488 144.713 121.872C144.473 122.248 144.101 122.552 143.597 122.784C143.093 123.008 142.457 123.12 141.689 123.12ZM155.468 123V114.6H156.752L162.02 121.068H161.384V114.6H162.932V123H161.648L156.38 116.532H157.016V123H155.468ZM169.383 118.092H173.559V119.376H169.383V118.092ZM169.503 121.692H174.243V123H167.943V114.6H174.075V115.908H169.503V121.692ZM182.354 123.12C181.202 123.12 180.298 122.796 179.642 122.148C178.994 121.5 178.67 120.564 178.67 119.34V114.6H180.23V119.28C180.23 120.144 180.414 120.772 180.782 121.164C181.158 121.556 181.686 121.752 182.366 121.752C183.046 121.752 183.57 121.556 183.938 121.164C184.306 120.772 184.49 120.144 184.49 119.28V114.6H186.026V119.34C186.026 120.564 185.698 121.5 185.042 122.148C184.394 122.796 183.498 123.12 182.354 123.12ZM192.523 123V115.92H189.739V114.6H196.867V115.92H194.083V123H192.523ZM200.798 123V114.6H204.254C204.998 114.6 205.634 114.72 206.162 114.96C206.698 115.2 207.11 115.544 207.398 115.992C207.686 116.44 207.83 116.972 207.83 117.588C207.83 118.204 207.686 118.736 207.398 119.184C207.11 119.624 206.698 119.964 206.162 120.204C205.634 120.436 204.998 120.552 204.254 120.552H201.662L202.358 119.844V123H200.798ZM206.294 123L204.17 119.952H205.838L207.974 123H206.294ZM202.358 120.012L201.662 119.268H204.182C204.87 119.268 205.386 119.12 205.73 118.824C206.082 118.528 206.258 118.116 206.258 117.588C206.258 117.052 206.082 116.64 205.73 116.352C205.386 116.064 204.87 115.92 204.182 115.92H201.662L202.358 115.152V120.012ZM213.775 118.092H217.951V119.376H213.775V118.092ZM213.895 121.692H218.635V123H212.335V114.6H218.467V115.908H213.895V121.692ZM225.738 123.12C225.082 123.12 224.454 123.028 223.854 122.844C223.254 122.652 222.778 122.408 222.426 122.112L222.966 120.9C223.302 121.164 223.718 121.384 224.214 121.56C224.71 121.736 225.218 121.824 225.738 121.824C226.178 121.824 226.534 121.776 226.806 121.68C227.078 121.584 227.278 121.456 227.406 121.296C227.534 121.128 227.598 120.94 227.598 120.732C227.598 120.476 227.506 120.272 227.322 120.12C227.138 119.96 226.898 119.836 226.602 119.748C226.314 119.652 225.99 119.564 225.63 119.484C225.278 119.404 224.922 119.312 224.562 119.208C224.21 119.096 223.886 118.956 223.59 118.788C223.302 118.612 223.066 118.38 222.882 118.092C222.698 117.804 222.606 117.436 222.606 116.988C222.606 116.532 222.726 116.116 222.966 115.74C223.214 115.356 223.586 115.052 224.082 114.828C224.586 114.596 225.222 114.48 225.99 114.48C226.494 114.48 226.994 114.544 227.49 114.672C227.986 114.8 228.418 114.984 228.786 115.224L228.294 116.436C227.918 116.212 227.53 116.048 227.13 115.944C226.73 115.832 226.346 115.776 225.978 115.776C225.546 115.776 225.194 115.828 224.922 115.932C224.658 116.036 224.462 116.172 224.334 116.34C224.214 116.508 224.154 116.7 224.154 116.916C224.154 117.172 224.242 117.38 224.418 117.54C224.602 117.692 224.838 117.812 225.126 117.9C225.422 117.988 225.75 118.076 226.11 118.164C226.47 118.244 226.826 118.336 227.178 118.44C227.538 118.544 227.862 118.68 228.15 118.848C228.446 119.016 228.682 119.244 228.858 119.532C229.042 119.82 229.134 120.184 229.134 120.624C229.134 121.072 229.01 121.488 228.762 121.872C228.522 122.248 228.15 122.552 227.646 122.784C227.142 123.008 226.506 123.12 225.738 123.12ZM234.011 123.084C233.739 123.084 233.507 122.992 233.315 122.808C233.123 122.616 233.027 122.376 233.027 122.088C233.027 121.784 233.123 121.544 233.315 121.368C233.507 121.184 233.739 121.092 234.011 121.092C234.283 121.092 234.515 121.184 234.707 121.368C234.899 121.544 234.995 121.784 234.995 122.088C234.995 122.376 234.899 122.616 234.707 122.808C234.515 122.992 234.283 123.084 234.011 123.084Z" fill="black"/>
</svg>
